<svg xmlns="http://www.w3.org/2000/svg">
    <defs>

        <g id="home">
            <path d="M15.7511 21.458H19.5011C19.6371 21.458 19.7511 21.343 19.7511 21.208V11.458C19.7511 10.906 20.2001 10.458 20.7511 10.458H22.5811L12.2681 1.525L1.92309 10.458H3.75109C4.30309 10.458 4.75109 10.906 4.75109 11.458V21.208C4.75109 21.343 4.86609 21.458 5.00109 21.458H8.75109V15.208C8.75109 14.519 9.31209 13.958 10.0011 13.958H14.5011C15.1901 13.958 15.7511 14.519 15.7511 15.208V21.458ZM19.5011 22.958H15.2511C14.6991 22.958 14.2511 22.51 14.2511 21.958V15.806C14.2511 15.614 14.0951 15.458 13.9031 15.458H10.5991C10.4071 15.458 10.2511 15.614 10.2511 15.806V21.958C10.2511 22.51 9.80309 22.958 9.25109 22.958H5.00109C4.03509 22.958 3.25109 22.174 3.25109 21.208V11.958H1.32009C0.818092 11.958 0.330092 11.694 0.119092 11.238C-0.118908 10.724 0.0080924 10.137 0.426092 9.769L11.2521 0.391C11.4991 0.154 11.8591 0.006 12.2401 0C12.6431 0.006 13.0041 0.154 13.2781 0.416L24.0721 9.765C24.0741 9.767 24.0751 9.768 24.0761 9.769C24.4951 10.137 24.6221 10.724 24.3841 11.238C24.1721 11.694 23.6851 11.958 23.1821 11.958H21.2511V21.208C21.2511 22.174 20.4681 22.958 19.5011 22.958Z" fill="#66676B"/>
        </g>
        <g id="videos">
            <path d="M6.25 22.5C5.836 22.5 5.5 22.164 5.5 21.75C5.5 21.336 5.836 21 6.25 21H16.75C17.164 21 17.5 21.336 17.5 21.75C17.5 22.164 17.164 22.5 16.75 22.5H6.25ZM14.663 10.096L9.555 13.173C9.091 13.452 8.5 13.119 8.5 12.577V6.422C8.5 5.881 9.091 5.547 9.555 5.826L14.663 8.904C15.112 9.174 15.112 9.825 14.663 10.096ZM19.25 17.5C20.492 17.5 21.5 16.492 21.5 15.25V3.75C21.5 2.508 20.492 1.5 19.25 1.5H3.75C2.508 1.5 1.5 2.508 1.5 3.75V15.25C1.5 16.492 2.508 17.5 3.75 17.5H19.25ZM19.25 19H3.75C1.679 19 0 17.321 0 15.25V3.75C0 1.679 1.679 0 3.75 0H19.25C21.321 0 23 1.679 23 3.75V15.25C23 17.321 21.321 19 19.25 19Z" fill="#66676B"/>
        </g>
        <g id="build">
            <path d="M15.5 21H19.75C20.164 21 20.5 20.664 20.5 20.25V11.25H20.531C20.364 11.167 20.206 11.065 20.061 10.944L19.66 10.609C19.567 10.533 19.433 10.533 19.34 10.61L19.176 10.747C18.591 11.233 17.855 11.5 17.095 11.5H16.869C16.114 11.5 15.382 11.237 14.8 10.756L14.616 10.604C14.523 10.528 14.39 10.528 14.298 10.604L14.113 10.757C13.53 11.237 12.798 11.5 12.044 11.5H11.907C11.162 11.5 10.439 11.244 9.861 10.775L9.645 10.6C9.552 10.525 9.419 10.526 9.328 10.602L9.155 10.747C8.57 11.234 7.834 11.5 7.074 11.5H6.896C6.143 11.5 5.414 11.239 4.832 10.761L4.638 10.601C4.545 10.525 4.413 10.525 4.32 10.601L3.849 10.989C3.726 11.09 3.592 11.178 3.452 11.25H3.5V20.25C3.5 20.664 3.836 21 4.25 21H8.5V14.75C8.5 14.06 9.06 13.5 9.75 13.5H14.25C14.94 13.5 15.5 14.06 15.5 14.75V21ZM1.673 6H22.327C22.3 5.91 22.271 5.821 22.238 5.733L21.087 2.605C20.823 1.938 20.178 1.5 19.461 1.5H4.54C3.822 1.5 3.177 1.938 2.919 2.588L1.762 5.733C1.729 5.821 1.7 5.91 1.673 6ZM22.5 7.5H1.5V9.25C1.5 9.664 1.836 10 2.25 10H2.421C2.595 10 2.763 9.94 2.897 9.83L3.368 9.443C4.013 8.912 4.945 8.912 5.59 9.443L5.784 9.602C6.097 9.859 6.49 10 6.896 10H7.074C7.483 10 7.88 9.857 8.194 9.595L8.368 9.45C9.01 8.915 9.941 8.909 10.589 9.435L10.805 9.609C11.117 9.862 11.506 10 11.907 10H12.044C12.45 10 12.844 9.858 13.158 9.6L13.343 9.447C13.989 8.913 14.924 8.913 15.571 9.447L15.755 9.6C16.068 9.858 16.462 10 16.869 10H17.095C17.504 10 17.901 9.856 18.216 9.594L18.38 9.458C19.028 8.916 19.972 8.916 20.62 9.457L21.022 9.792C21.183 9.926 21.387 10 21.598 10C22.097 10 22.5 9.597 22.5 9.1V7.5ZM22 11.467V20.25C22 21.493 20.993 22.5 19.75 22.5H4.25C3.007 22.5 2 21.493 2 20.25V11.486C0.875 11.362 0 10.408 0 9.25V7.201C0 6.522 0.12 5.85 0.354 5.214L1.518 2.052C2.01 0.813 3.207 0 4.54 0H19.461C20.793 0 21.99 0.813 22.488 2.069L23.646 5.214C23.88 5.85 24 6.522 24 7.201V9.1C24 10.289 23.135 11.276 22 11.467ZM14 21V15H10V21H14Z" fill="#66676B"/>
        </g>
        <g id="group">
            <path d="M24.5 13C24.5 6.649 19.351 1.5 13 1.5C6.649 1.5 1.5 6.649 1.5 13C1.5 19.351 6.649 24.5 13 24.5C19.351 24.5 24.5 19.351 24.5 13ZM26 13C26 20.18 20.18 26 13 26C5.82 26 0 20.18 0 13C0 5.82 5.82 0 13 0C20.18 0 26 5.82 26 13ZM6.479 13H6.631C6.933 13 7.102 13.338 6.934 13.591C6.334 14.491 5.983 15.568 5.983 16.724V17.221C5.983 17.342 5.99 17.461 6.004 17.578C6.03 17.802 5.862 18 5.637 18H5.123C4.228 18 3.5 17.25 3.5 16.327C3.5 14.492 4.727 13 6.479 13ZM19.521 13C21.274 13 22.5 14.492 22.5 16.327C22.5 17.25 21.772 18 20.878 18H20.364C20.139 18 19.97 17.802 19.997 17.578C20.01 17.461 20.017 17.342 20.017 17.221V16.724C20.017 15.568 19.667 14.491 19.067 13.591C18.899 13.338 19.067 13 19.369 13H19.521ZM7.25 12C6.147 12 5.25 10.991 5.25 9.75C5.25 8.384 6.035 7.5 7.25 7.5C8.465 7.5 9.25 8.384 9.25 9.75C9.25 10.991 8.353 12 7.25 12ZM18.75 12C17.647 12 16.75 10.991 16.75 9.75C16.75 8.384 17.535 7.5 18.75 7.5C19.965 7.5 20.75 8.384 20.75 9.75C20.75 10.991 19.853 12 18.75 12ZM14.172 12.5C16.558 12.5 18.5 14.395 18.5 16.724V17.221C18.5 18.202 17.683 19 16.677 19H9.323C8.317 19 7.5 18.202 7.5 17.221V16.724C7.5 14.395 9.441 12.5 11.828 12.5H14.172ZM15.75 8C15.75 9.655 14.517 11 13 11C11.484 11 10.25 9.655 10.25 8C10.25 6.15 11.304 5 13 5C14.697 5 15.75 6.15 15.75 8Z" fill="#66676B"/>
        </g>
        <g id="rand">
            <path d="M20.5 6.5H7.25C7.05109 6.5 6.86032 6.57902 6.71967 6.71967C6.57902 6.86032 6.5 7.05109 6.5 7.25V14.25C6.5 14.664 6.836 15 7.25 15H14V20.5H1.5V1.5H20.5V6.5ZM20.5 20.5H15.5V14.25C15.5 14.0511 15.421 13.8603 15.2803 13.7197C15.1397 13.579 14.9489 13.5 14.75 13.5H8V8H20.5V20.5ZM22 20.75V1.25C22 0.561 21.439 0 20.75 0H1.25C0.561 0 0 0.561 0 1.25V20.75C0 21.439 0.561 22 1.25 22H20.75C21.439 22 22 21.439 22 20.75Z" fill="#66676B"/>
        </g>
        <g id="search">
            <path fill-rule="evenodd" clip-rule="evenodd" d="M10.1779 2.8233C12.2088 4.85421 12.2088 8.14696 10.1779 10.1779C8.14696 12.2088 4.85421 12.2088 2.8233 10.1779C0.79239 8.14696 0.79239 4.85421 2.8233 2.8233C4.85421 0.79239 8.14696 0.79239 10.1779 2.8233ZM11.6589 10.4578C13.6195 7.90868 13.4323 4.23907 11.0972 1.90398C8.55856 -0.634659 4.44261 -0.634659 1.90398 1.90398C-0.634659 4.44261 -0.634659 8.55856 1.90398 11.0972C4.23907 13.4323 7.90867 13.6195 10.4578 11.6589L14.1894 15.667C14.5928 16.1002 15.2752 16.1124 15.6938 15.6938C16.1124 15.2752 16.1002 14.5928 15.6669 14.1894L11.6589 10.4578Z" fill="#66676B"/>
        </g>

        <g id="add">
            <path fill-rule="evenodd" clip-rule="evenodd" d="M7.5 0C6.94772 0 6.5 0.447715 6.5 1V6.5H1C0.447716 6.5 0 6.94771 0 7.5C0 8.05228 0.447715 8.5 1 8.5H6.5V14C6.5 14.5523 6.94772 15 7.5 15C8.05228 15 8.5 14.5523 8.5 14V8.5H14C14.5523 8.5 15 8.05228 15 7.5C15 6.94772 14.5523 6.5 14 6.5H8.5V1C8.5 0.447715 8.05228 0 7.5 0Z" fill="#66676B"/>
       </g>
        <g id="messages">
            <path d="M8.57212 0C13.4007 0 17.1435 3.53714 17.1435 8.31429C17.1435 13.0914 13.4007 16.6286 8.57212 16.6286C7.73396 16.6305 6.89934 16.5198 6.09069 16.2993C5.93877 16.2573 5.777 16.2692 5.63283 16.3329L3.92926 17.0836C3.82646 17.1289 3.71411 17.1482 3.60207 17.14C3.49003 17.1317 3.38173 17.0961 3.28667 17.0362C3.19161 16.9764 3.1127 16.8941 3.05686 16.7966C3.00102 16.6991 2.96996 16.5894 2.96641 16.4771L2.91998 14.9529C2.91683 14.8601 2.89481 14.7689 2.85527 14.6849C2.81572 14.6009 2.75948 14.5258 2.68998 14.4643C1.82998 13.6895 1.14523 12.7401 0.681464 11.6796C0.217701 10.619 -0.0143919 9.47171 0.000690691 8.31429C0.000690691 3.53714 3.74355 0 8.57212 0ZM3.42498 10.7457C3.37404 10.8264 3.35306 10.9224 3.36571 11.017C3.37835 11.1116 3.42382 11.1987 3.49416 11.2632C3.5645 11.3277 3.65526 11.3654 3.75058 11.3698C3.8459 11.3741 3.93973 11.3449 4.01569 11.2871L6.71998 9.23429C6.80935 9.16706 6.91815 9.13071 7.02998 9.13071C7.14181 9.13071 7.25061 9.16706 7.33998 9.23429L9.33998 10.7343C9.48205 10.8405 9.64457 10.9162 9.81732 10.9565C9.99006 10.9969 10.1693 11.0011 10.3437 10.9688C10.5181 10.9365 10.684 10.8685 10.8309 10.769C10.9778 10.6695 11.1024 10.5407 11.1971 10.3907L13.715 6.39643C13.7659 6.31574 13.7869 6.21972 13.7742 6.12514C13.7616 6.03056 13.7161 5.94343 13.6458 5.87895C13.5754 5.81448 13.4847 5.77676 13.3894 5.77238C13.2941 5.768 13.2002 5.79724 13.1243 5.855L10.42 7.90786C10.3306 7.97508 10.2218 8.01143 10.11 8.01143C9.99815 8.01143 9.88935 7.97508 9.79998 7.90786L7.79998 6.40786C7.6579 6.30164 7.49538 6.22597 7.32264 6.18562C7.1499 6.14526 6.97067 6.14108 6.79624 6.17335C6.62181 6.20562 6.45594 6.27364 6.30907 6.37312C6.1622 6.47261 6.03751 6.60141 5.94283 6.75143L3.42498 10.7457Z" fill="#66676B"/>
        </g>
        <g id="notif">
            <path d="M3.48826 14.9551C4.45969 14.9551 6.05684 14.8658 8.21684 14.468C7.84326 15.4837 6.86969 16.2115 5.72612 16.2115C4.77541 16.2115 3.94255 15.708 3.47255 14.9551H3.48826ZM15.6854 9.41367C15.8618 10.3222 15.2247 11.1258 13.7904 11.8037C13.0047 12.1744 11.2576 12.8801 8.37184 13.4415C6.14612 13.8737 4.51541 13.973 3.48898 13.973C3.18398 13.973 2.93184 13.9644 2.73326 13.953C1.15041 13.8622 0.257549 13.3551 0.0811208 12.4465C-0.186736 11.0701 0.236835 10.5387 0.938978 9.65867L1.12398 9.42652C1.59755 8.82581 1.78255 8.23581 1.47969 6.67938C0.801835 3.19367 2.37184 0.811524 5.78612 0.144382C9.20184 -0.514904 11.5504 1.10367 12.2283 4.5901C12.5304 6.14652 12.9233 6.62367 13.5876 7.00295V7.00367L13.8461 7.1501C14.8261 7.70295 15.4176 8.03652 15.6854 9.41367Z" fill="#66676B"/>

        </g>
        <g id="view-more">
            <path d="M7.09034 7.84589C6.49844 8.4724 5.50154 8.4724 4.90964 7.84589L0.596101 3.28012C-0.307594 2.32358 0.370535 0.75 1.68645 0.75L10.3135 0.750001C11.6294 0.750001 12.3076 2.32358 11.4039 3.28012L7.09034 7.84589Z" fill="#66676B"/>         
        </g>
    </defs>

</svg>