<svg width="22" height="22" viewBox="0 0 22 22" fill="none" xmlns="http://www.w3.org/2000/svg">
<path fill-rule="evenodd" clip-rule="evenodd" d="M10.7708 0C16.7292 0 21.5417 4.8125 21.5417 10.7708C21.5417 16.7292 16.7292 21.5417 10.7708 21.5417C4.8125 21.5417 0 16.7292 0 10.7708C0 4.8125 4.8125 0 10.7708 0ZM10.7708 20.1667C15.95 20.1667 20.1667 15.95 20.1667 10.7708C20.1667 5.59167 15.95 1.375 10.7708 1.375C5.59167 1.375 1.375 5.59167 1.375 10.7708C1.375 15.95 5.59167 20.1667 10.7708 20.1667ZM8.75417 9.30417C8.89167 9.075 9.075 8.89167 9.30417 8.75417L16.0875 5.04167C16.225 4.99583 16.3625 4.99583 16.4542 5.0875C16.5458 5.17917 16.5917 5.31667 16.5 5.45417L12.7875 12.2375C12.65 12.4667 12.4667 12.65 12.2375 12.7875L5.45417 16.5C5.31667 16.5458 5.17917 16.5458 5.0875 16.4542C4.99583 16.3625 4.95 16.225 5.04167 16.0875L8.75417 9.30417V9.30417ZM11.5958 11.5958L13.5667 8.02083L9.99167 9.99167L11.5958 11.5958Z" fill="#262626"/>
</svg>
