<svg width="22" height="22" viewBox="0 0 22 22"  xmlns="http://www.w3.org/2000/svg">
<path d="M21.2126 22H13.8863C13.5033 22 13.1681 21.6795 13.1681 21.3132V15.6816C13.1681 14.4912 12.2104 13.5754 10.9654 13.5754C9.72044 13.5754 8.76276 14.4912 8.76276 15.6816V21.3132C8.76276 21.6795 8.42757 22 8.0445 22H0.718259C0.335187 22 0 21.6795 0 21.3132V10.5536C0 10.3704 0.0957678 10.1873 0.191536 10.0499L10.4866 0.206035C10.7739 -0.0686785 11.2048 -0.0686785 11.4921 0.206035L21.7872 10.0499C21.9787 10.2331 22.0745 10.5536 21.9308 10.7825C21.9308 10.8283 21.883 10.8283 21.883 10.8741V21.3132C21.9308 21.6795 21.5956 22 21.2126 22ZM14.6046 20.6264H20.4943V10.7367L11.0133 1.67118L1.43652 10.8283V20.6264H7.32624V15.6816C7.32624 13.7128 8.90641 12.2019 10.9654 12.2019C13.0244 12.2019 14.6046 13.7128 14.6046 15.6816V20.6264V20.6264Z" />
</svg>
