<svg width="22" height="19" viewBox="0 0 22 19" fill="none" xmlns="http://www.w3.org/2000/svg">
<path fill-rule="evenodd" clip-rule="evenodd" d="M15.4917 0C12.2375 0 10.7708 2.42917 10.7708 2.42917C10.7708 2.42917 9.30417 0 6.05 0C2.70417 0 0 2.93333 0 6.55417C0 10.175 2.79583 12.2375 5.59167 14.7125C9.80833 18.4708 10.0833 18.7917 10.7708 18.7917C11.4583 18.7917 11.7333 18.4708 15.95 14.7125C18.7917 12.1917 21.5417 10.1292 21.5417 6.55417C21.5417 2.93333 18.8375 0 15.4917 0ZM15.0333 13.6583C12.5583 15.8583 11.2292 17.0958 10.7708 17.3708C10.3125 17.05 8.6625 15.5833 6.50833 13.6583C3.9875 11.4125 1.375 9.53333 1.375 6.50833C1.375 3.66667 3.48333 1.32917 6.05 1.32917C7.92917 1.32917 8.9375 2.24583 9.67083 3.25417C11.3208 5.59167 10.2208 5.59167 11.8708 3.25417C12.6042 2.24583 13.6125 1.32917 15.4917 1.32917C18.0583 1.32917 20.1667 3.66667 20.1667 6.50833C20.1667 9.57917 17.5542 11.4583 15.0333 13.6583Z" fill="#262626"/>
</svg>
